<svg width="291" height="257" viewBox="0 0 291 257" fill="none" xmlns="http://www.w3.org/2000/svg">
<path d="M219.805 231.003C215.168 231.003 210.531 230.603 206.026 229.67C186.02 225.939 165.483 224.073 145.212 224.073C124.941 224.073 104.404 225.939 84.3978 229.67C79.8931 230.47 75.2558 231.003 70.6186 231.003C31.6657 231.003 0 199.152 0 159.971V150.509C0 111.328 31.6657 79.4771 70.6186 79.4771C80.423 79.4771 89.9625 81.3428 98.972 85.0743C113.679 91.0714 129.313 94.1365 145.212 94.1365C161.111 94.1365 176.745 91.0714 191.452 85.0743C200.461 81.3428 210.001 79.4771 219.805 79.4771C258.758 79.4771 290.424 111.328 290.424 150.509V159.971C290.424 199.152 258.758 231.003 219.805 231.003Z" fill="white"/>
<path d="M214.478 97.7007C218.471 99.6584 222.88 100.499 227.192 100.125C231.503 99.7507 235.541 98.1771 238.836 95.587C242.131 92.9968 244.547 89.4964 245.804 85.4925C247.062 81.4886 247.108 77.1456 245.938 72.9681C247.682 73.7341 249.574 74.0445 251.42 73.8676C253.266 73.6908 255.001 73.033 256.445 71.9616C257.89 70.8903 258.994 69.4437 259.643 67.77C260.293 66.0962 260.465 64.2553 260.142 62.4356C261.128 62.6473 262.137 62.5808 263.05 62.2441C263.963 61.9074 264.742 61.3145 265.294 60.536C265.845 59.7575 266.147 58.826 266.162 57.8521C266.178 56.8782 265.907 55.9028 265.382 55.0419C264.856 54.1809 264.098 53.4704 263.198 52.9949C262.298 52.5194 261.293 52.2987 260.303 52.3592C259.313 52.4196 258.38 52.7586 257.614 53.3359C256.847 53.9132 256.28 54.7045 255.98 55.6159C254.474 54.4364 252.698 53.6515 250.836 53.3417C248.974 53.0318 247.092 53.2082 245.384 53.8526C243.675 54.497 242.201 55.5863 241.113 57.009C240.024 58.4316 239.36 60.1363 239.19 61.9484C236.05 58.9901 232.192 56.8851 228.038 55.8639C223.884 54.8427 219.594 54.9446 215.639 56.1584C211.683 57.3722 208.213 59.6511 205.609 62.7459C203.005 65.8406 201.368 69.6319 200.875 73.7047C191.598 66.6709 176.978 61.9183 165.548 68.1317C150.24 76.4547 139.898 86.6519 155.694 112.562C170.391 136.705 185.266 133.959 200.579 125.639C211.286 119.805 215.895 108.99 214.478 97.7007Z" fill="#FF9598"/>
<path d="M61.8901 43.7539L82.3005 31.8063C84.4909 30.6116 87.2787 30.9102 89.1704 32.5033L109.382 52.4159L100.72 65.9565C100.72 65.9565 82.1014 54.7059 75.3311 61.0779L61.8901 43.7539Z" fill="#C07A9E"/>
<path opacity="0.24" d="M111.565 64.4687L126.343 88.0304C127.48 89.7872 129.856 90.0972 131.51 88.9605L133.68 87.4104C135.437 86.2736 135.747 83.8968 134.61 82.2434L119.832 58.785C118.696 57.0282 116.319 56.7182 114.665 57.8549L112.495 59.405C110.842 60.4384 110.325 62.8153 111.565 64.4687Z" fill="white"/>
<path d="M84.5898 83.6793L93.0527 87.1641C95.0439 88.0602 98.8995 89.3545 98.8995 87.1641C98.8995 78.9998 94.347 72.6277 89.3689 70.9351" fill="#C07A9E"/>
<path d="M164.211 141.867C164.211 141.867 151.297 180.851 155.977 184.634L119.835 185.929L71.7466 157.752C71.7466 157.752 81.6033 132.364 104.005 125.892C126.307 119.42 164.211 141.867 164.211 141.867Z" fill="#FF0D13"/>
<path d="M103.806 136.374L80.6079 129.179L76.6254 82.5833C74.435 82.1851 78.6166 83.7781 76.6254 82.5833L95.4427 89.5528C96.9362 90.0506 98.4296 88.9554 98.3301 87.4619C97.8323 81.6873 91.958 77.6052 87.3782 75.3153C81.6035 72.4279 77.9197 66.1555 78.5171 59.6839C78.7162 57.8917 79.1144 56.2987 80.0105 55.3031L82.5991 52.6149C85.1878 49.9267 90.365 47.0394 94.1484 46.5415C101.914 45.3468 105.2 42.0612 105.797 39.9704C106.196 38.6761 105.2 37.3817 103.806 37.3817C101.914 37.4813 89.2698 37.2822 85.4865 37.1826C84.7895 37.1826 84.0926 37.2822 83.3956 37.5809L72.4437 37.6804L62.587 40.0699C50.2412 43.256 41.3801 54.1083 40.8823 66.952L29.333 144.611C27.3418 158.052 33.0168 171.394 44.0683 179.259C62.587 192.501 102.711 196.583 115.754 193.696C133.077 189.813 103.806 136.374 103.806 136.374Z" fill="#C07A9E"/>
<path d="M72.4421 38.1235L94.0478 36.853" stroke="#6A1857" stroke-width="2"/>
<path d="M111.189 38.9095L81.8391 55.0324C78.714 57.0089 76.9496 61.3344 79.1665 65.5368L85.126 77.2793L94.0697 94.0821L98.9662 103.372L112.115 128.6C113.966 132.14 119.377 134.283 121.99 132.583L151.153 116.091C154.278 114.115 156.644 110.507 154.427 106.305L147.673 93.3983L138.736 76.6721L133.839 67.3822L125.172 51.0951L120.752 42.8435C118.825 39.3099 113.808 37.2867 111.189 38.9095Z" fill="#751E2B"/>
<path d="M113.813 37.3459L85.4302 52.9125C82.4371 54.8089 80.7415 59.1508 82.9689 63.376L88.9565 75.1824L97.9424 92.0766L102.939 101.41L116.15 126.776C118.009 130.335 123.299 132.58 125.854 130.956L153.973 115.025C156.966 113.128 159.196 109.592 156.969 105.367L150.183 92.39L141.197 75.4958L136.201 66.1622L127.562 49.7026L123.121 41.4061C121.262 37.8465 116.291 35.7282 113.813 37.3459Z" fill="#EA0029"/>
<path d="M114.608 43.8658L89.3917 57.7332C86.7 59.4548 85.1999 63.3322 87.2298 67.129L92.5639 77.8071L100.524 92.9308L104.958 101.271L116.382 123.34C118.051 126.545 122.766 128.543 125.021 127.094L150.334 113.452C153.025 111.73 154.976 108.593 153.022 104.789L146.988 93.1595L139.021 77.9584L134.587 69.618L126.821 54.9449L122.928 47.4923C121.258 44.2873 116.862 42.417 114.608 43.8658Z" fill="white"/>
<path fill-rule="evenodd" clip-rule="evenodd" d="M111.042 80.7092C114.282 78.7838 114.859 74.4454 113.515 71.8372C112.533 69.9761 110.407 70.2434 108.85 71.0836C105.33 73.1898 105.134 77.6501 106.378 79.9555C107.279 81.7459 109.419 81.6332 111.042 80.7092ZM122.251 66.6941C123.589 69.225 123.012 73.5633 119.779 75.5661C118.229 76.4835 116.096 76.6736 115.114 74.8124C113.871 72.507 114.074 68.1241 117.594 66.0178C119.143 65.1003 121.203 64.9168 122.251 66.6941ZM117.796 87.4342C120.776 85.9217 122.93 83.4694 123.933 80.5741L126.025 82.4143L123.947 75.7404L118.516 78.8742L121.073 79.27C120.344 81.9071 118.003 84.7657 115.364 85.9361C112.724 87.1066 109.853 86.505 108.023 85.1091L107.883 85.1995C109.977 87.8969 114.041 89.4055 117.796 87.4342Z" fill="#EA0029"/>
<path d="M89.7668 169.302L73.0929 192.192C72.2964 195.577 73.8894 199.061 76.9758 200.555C80.9863 202.581 100.919 205.984 105.021 213.062C109.871 228.847 109.493 227.975 109.493 227.975C113.583 243.421 206.338 248.981 226.603 239.128C254.941 239.128 261.712 193.097 254.941 186.725C207.55 142.021 215.913 158.25 202.671 155.462C202.671 155.462 110.177 165.021 92.1563 166.514C90.6629 166.614 89.6672 167.808 89.7668 169.302Z" fill="#FF0D13"/>
<path d="M166.232 117.531C162.448 124.202 158.764 120.12 161.652 117.033L166.232 117.531Z" fill="#AE709D"/>
<path fill-rule="evenodd" clip-rule="evenodd" d="M162.071 116.582C162.318 116.814 162.331 117.202 162.1 117.45C161.468 118.126 161.232 118.815 161.231 119.35C161.23 119.891 161.459 120.247 161.738 120.402C162.006 120.551 162.49 120.605 163.195 120.175C163.906 119.742 164.781 118.842 165.698 117.226C165.865 116.931 166.24 116.828 166.534 116.995C166.829 117.162 166.933 117.536 166.765 117.831C165.791 119.55 164.787 120.642 163.833 121.223C162.874 121.808 161.908 121.899 161.143 121.475C160.389 121.057 160.002 120.231 160.004 119.347C160.006 118.457 160.392 117.479 161.204 116.611C161.435 116.364 161.824 116.351 162.071 116.582Z" fill="black"/>
<path fill-rule="evenodd" clip-rule="evenodd" d="M118.249 49.3522C136.856 53.9403 148.496 73.3121 144.248 92.514C140.461 109.632 125.262 120.876 108.825 119.803C108.752 120.147 108.631 120.488 108.46 120.816L87.5776 148.588C86.558 150.542 84.179 151.307 82.2249 150.287L77.4669 147.314C75.5128 146.209 74.7479 145.481 77.4667 143.612L94.2438 115.478C80.7715 107.929 73.1634 91.7504 76.7874 75.6911C81.1205 56.4892 99.6425 44.6792 118.249 49.3522ZM86.4732 78.0701C83.4145 91.8343 91.7409 105.598 104.995 108.912C118.334 112.226 131.504 103.814 134.562 90.135C137.621 76.4558 129.295 62.6066 116.04 59.293C102.786 55.9794 89.5319 64.3059 86.4732 78.0701Z" fill="#AC0005"/>
<path d="M80.01 157.355L99.1261 116.634C100.321 114.344 103.109 113.448 105.399 114.643L110.974 118.128C113.264 119.322 114.16 122.11 112.965 124.4L93.8493 165.121C92.6545 167.411 89.8668 168.307 87.5768 167.113L82.0013 163.628C79.7114 162.333 78.8153 159.546 80.01 157.355Z" fill="#C40A0F"/>
<path d="M122.424 152.774C122.424 152.774 110.576 131.368 109.68 130.273C102.91 143.813 100.321 149.787 95.4425 147.298L89.867 146.004C81.4041 139.731 76.1273 131.766 76.1273 131.766C73.1404 128.68 64.1797 132.364 69.0583 139.632C70.95 142.519 72.7421 145.307 74.2356 147.796C74.2356 147.796 67.9631 147.895 68.1623 152.674C68.1623 153.172 68.2618 153.57 68.4609 154.068C66.6688 154.367 63.4828 155.363 63.5824 158.847C63.5824 159.843 63.9806 160.739 64.578 161.635L67.5649 166.016C69.4566 168.704 72.2443 170.695 75.4303 171.492L86.8801 174.379L107.987 181.05C126.705 189.014 133.675 155.163 122.424 152.774Z" fill="#C07A9E"/>
<path fill-rule="evenodd" clip-rule="evenodd" d="M122.424 152.774C122.424 152.774 112.586 134.999 110.161 131.015C109.925 130.627 109.759 130.37 109.68 130.273C109.548 130.537 109.418 130.797 109.289 131.055C109.024 131.586 108.766 132.105 108.514 132.611C102.593 144.495 100.031 149.639 95.4425 147.298L89.867 146.004C81.4041 139.731 76.1273 131.766 76.1273 131.766C73.1404 128.68 64.1797 132.364 69.0583 139.632C70.7653 142.237 72.3912 144.761 73.7897 147.058C73.9411 147.307 74.0897 147.553 74.2356 147.796C74.2356 147.796 73.9011 147.801 73.3891 147.868C71.6837 148.091 68.0091 148.999 68.1623 152.674C68.1623 152.91 68.1845 153.123 68.2289 153.334C68.2786 153.571 68.3559 153.806 68.4609 154.068C68.2284 154.107 67.9724 154.158 67.7031 154.224C65.8973 154.667 63.4957 155.815 63.5824 158.847C63.5824 159.843 63.9806 160.739 64.578 161.635L67.5649 166.016C69.4566 168.704 72.2443 170.695 75.4303 171.492L86.8801 174.379L107.987 181.05C126.705 189.014 133.675 155.163 122.424 152.774ZM122.424 152.774L121.757 153.143C121.864 153.337 122.049 153.474 122.266 153.52C124.635 154.023 126.185 156.204 126.797 159.461C127.405 162.694 127.026 166.765 125.723 170.546C124.419 174.331 122.225 177.726 119.296 179.695C116.41 181.636 112.738 182.242 108.286 180.348C108.274 180.343 108.262 180.338 108.25 180.334C108.239 180.33 108.228 180.326 108.217 180.322L87.1099 173.652C87.0955 173.647 87.0811 173.643 87.0665 173.639L75.6168 170.752L75.6153 170.752C72.6191 170.003 69.9843 168.127 68.1917 165.581L65.2103 161.209C64.6535 160.373 64.3449 159.627 64.3449 158.847L64.3446 158.825C64.303 157.368 64.9272 156.477 65.7562 155.883C66.6249 155.261 67.7347 154.962 68.5863 154.82C68.814 154.782 69.0123 154.643 69.1255 154.442C69.2387 154.241 69.2547 153.999 69.1689 153.785C68.9941 153.348 68.9248 153.048 68.9248 152.674C68.9248 152.664 68.9246 152.653 68.9241 152.643C68.882 151.632 69.1775 150.914 69.6163 150.38C70.0686 149.83 70.7099 149.432 71.4094 149.15C72.106 148.869 72.8196 148.719 73.367 148.641C73.6387 148.602 73.8644 148.581 74.02 148.57C74.0977 148.565 74.1576 148.562 74.1967 148.56L74.2391 148.559L74.2478 148.558C74.5199 148.554 74.7699 148.404 74.9021 148.166C75.0345 147.928 75.0297 147.637 74.8895 147.404C73.388 144.901 71.5891 142.103 69.6962 139.214L69.6915 139.207C68.548 137.503 68.2738 136.1 68.4385 135.017C68.6032 133.935 69.2231 133.059 70.089 132.435C70.9619 131.806 72.0587 131.455 73.0926 131.434C74.1049 131.412 74.9749 131.704 75.5351 132.252L75.5581 132.286C75.6005 132.349 75.6632 132.44 75.7456 132.558C75.9102 132.793 76.1536 133.135 76.4717 133.563C77.1076 134.42 78.0428 135.626 79.2444 137.029C81.6455 139.832 85.1217 143.436 89.4129 146.616C89.4969 146.679 89.5927 146.723 89.6945 146.747L95.1815 148.02C96.5204 148.682 97.8034 148.811 99.0609 148.298C100.293 147.796 101.388 146.722 102.467 145.247C104.361 142.658 106.431 138.503 109.192 132.96C109.378 132.587 109.566 132.209 109.758 131.824C109.781 131.863 109.805 131.903 109.829 131.944C110.236 132.628 110.77 133.55 111.387 134.63C112.622 136.787 114.186 139.563 115.723 142.307C117.259 145.05 118.768 147.759 119.892 149.783C120.454 150.794 120.921 151.635 121.246 152.222L121.757 153.143C121.757 153.143 121.757 153.143 122.424 152.774Z" fill="#6A1857"/>
<path d="M148.097 94.1226C152.345 74.9208 140.705 55.5491 122.098 50.9611C103.491 46.2881 84.9691 58.098 80.636 77.2998C76.3029 96.5016 88.0278 115.873 106.635 120.461C125.242 125.134 143.764 113.324 148.097 94.1226ZM108.844 110.521C95.5895 107.207 87.2631 93.3579 90.3218 79.6788C93.3805 65.9996 106.635 57.5883 119.889 60.9018C133.143 64.2154 141.47 78.0645 138.411 91.7436C135.352 105.423 122.098 113.834 108.844 110.521Z" fill="#C40A0F"/>
<path d="M102.113 177.865L138.354 229.778C149.903 253.972 184.253 260.742 199.884 255.167C211.533 250.985 233.835 235.951 239.311 221.714L251.955 192.003L203.07 185.432C203.07 185.432 180.874 198.331 179.58 196.639L110.055 130.281L102.113 177.865Z" fill="#C07A9E"/>
<path fill-rule="evenodd" clip-rule="evenodd" d="M178.883 125.785C173.185 130.752 158.762 134.925 150.003 130.674C150.003 130.674 145.921 128.782 141.939 125.695C130.489 116.934 130.887 102.454 150.003 86.1258C153.389 83.1389 167.228 88.9566 169.219 93.1383C171.103 97.2355 174.323 102.625 177.194 107.167L183.355 103.581C186.672 101.285 191.391 102.561 193.305 106.26C194.198 108.046 194.325 110.087 193.56 111.872C191.901 115.827 188.075 122.715 180.804 125.394C180.161 125.624 179.516 125.751 178.883 125.785Z" fill="#C07A9E"/>
<path d="M148.111 104.089C147.315 103.591 147.116 102.496 147.613 101.6L148.51 100.305C149.007 99.5088 150.103 99.3097 150.999 99.8075C151.795 100.305 151.994 101.401 151.496 102.297L150.6 103.591C150.103 104.388 149.007 104.587 148.111 104.089Z" fill="#2F1620"/>
<path fill-rule="evenodd" clip-rule="evenodd" d="M163.92 103.512C163.964 103.885 163.697 104.223 163.325 104.266L158.247 104.864C157.874 104.908 157.536 104.641 157.493 104.268C157.449 103.895 157.715 103.558 158.088 103.514L163.166 102.916C163.539 102.872 163.876 103.139 163.92 103.512Z" fill="#2F1620"/>
<path d="M180.867 123.203C180.867 123.203 195.105 145.904 196.897 145.904L231.844 176.071L178.478 171.591C172.803 171.591 147.613 179.158 142.137 145.804C141.44 141.722 144.129 139.332 148.111 140.428C150.202 140.129 150.899 140.328 151.198 139.332C151.496 138.337 151.198 137.341 150.501 136.545L148.111 129.227L180.867 123.203Z" fill="#C07A9E"/>
<path fill-rule="evenodd" clip-rule="evenodd" d="M176.17 127.114C175.992 126.976 175.736 127.008 175.599 127.186C173.452 129.953 168.971 131.968 164.015 132.67C159.069 133.372 153.777 132.747 150.053 130.378C149.864 130.257 149.612 130.313 149.491 130.502C149.371 130.692 149.427 130.944 149.616 131.064C153.559 133.573 159.069 134.194 164.129 133.476C169.18 132.76 173.908 130.692 176.242 127.685C176.379 127.507 176.347 127.252 176.17 127.114Z" fill="#6A1857"/>
<path d="M193.214 141.923C193.214 141.923 201.875 177.765 155.38 173.086L177.062 197.061L250.603 228.166C252.893 228.764 253.355 228.018 257.718 218.923C265.706 202.268 283.629 169.734 261.388 147.958C237.31 124.383 193.214 141.923 193.214 141.923Z" fill="#FF0D13"/>
<path d="M78.4172 58.1899C83.1962 52.4152 87.577 52.6143 92.4555 53.8091C101.814 56.2982 101.914 53.7095 105 51.1209C105.697 50.5235 105.498 49.2291 104.602 48.9304L90.763 44.5496C88.7717 43.9522 86.6809 43.9522 84.7892 44.5496L70.4521 49.2291" fill="#C07A9E"/>
<path fill-rule="evenodd" clip-rule="evenodd" d="M84.3582 43.8739C85.8988 43.6693 87.4299 43.8762 88.9431 44.2798L88.9477 44.281L104.691 48.7648C105.256 48.9534 105.586 49.4516 105.674 49.9665C105.762 50.4795 105.619 51.0587 105.182 51.4334L105.18 51.4353C104.657 51.8743 104.228 52.3062 103.814 52.7231C103.625 52.9137 103.439 53.1011 103.248 53.2847C102.649 53.8618 102.025 54.378 101.188 54.7275C99.5152 55.4254 97.0706 55.4262 92.3834 54.1796C91.2007 53.8659 89.4417 53.711 87.5694 53.8706C85.6972 54.0302 83.737 54.5021 82.1408 55.4211C80.5502 56.337 79.3289 57.6908 78.8953 59.6268C78.46 61.5711 78.8087 64.1486 80.4604 67.5261L79.9577 67.772C78.2741 64.3293 77.8761 61.6174 78.3492 59.5045C78.8242 57.3833 80.1667 55.912 81.8616 54.9361C83.551 53.9634 85.5982 53.477 87.5218 53.313C89.4452 53.149 91.2705 53.3053 92.5271 53.6387C97.1987 54.8812 99.4835 54.8322 100.972 54.211C101.715 53.9008 102.28 53.44 102.86 52.8816C103.034 52.7141 103.211 52.5356 103.395 52.3499C103.817 51.9253 104.277 51.4628 104.819 51.0075C105.078 50.7847 105.184 50.4186 105.123 50.061C105.062 49.7067 104.846 49.4094 104.519 49.2978L88.7989 44.8205C88.7982 44.8203 88.7974 44.8201 88.7967 44.8199C87.3253 44.4277 85.8717 44.2367 84.4277 44.4293L84.4188 44.4304L72.5708 45.6251L72.5146 45.0682L84.3582 43.8739Z" fill="#6A1857"/>
<path fill-rule="evenodd" clip-rule="evenodd" d="M84.3366 43.6833C85.9094 43.4749 87.466 43.6872 88.9928 44.0943L89.0005 44.0964L104.751 48.5826C105.398 48.798 105.765 49.3646 105.863 49.933C105.96 50.4986 105.805 51.1503 105.307 51.5769L105.304 51.5795C104.788 52.0121 104.364 52.4389 103.95 52.8562L103.949 52.8571C103.76 53.0471 103.573 53.2358 103.381 53.4208C102.775 54.0043 102.131 54.5394 101.262 54.9022C99.5266 55.6263 97.0275 55.6107 92.3349 54.3627C91.1774 54.0556 89.441 53.9013 87.5861 54.0594C85.7315 54.2175 83.8009 54.6844 82.2365 55.5852C80.6814 56.4805 79.5013 57.7943 79.0819 59.6673C78.6594 61.5542 78.9913 64.0859 80.6322 67.4412L80.716 67.6125L79.8707 68.0259L79.787 67.8546C78.0925 64.3898 77.6777 61.6321 78.1637 59.4617C78.6529 57.2774 80.0366 55.766 81.767 54.7697C83.4881 53.7787 85.565 53.2873 87.5062 53.1219C89.4469 52.9564 91.2947 53.1132 92.5765 53.4533C97.2428 54.6943 99.4733 54.629 100.899 54.0339C101.61 53.7371 102.155 53.2952 102.728 52.743C102.9 52.5773 103.076 52.4004 103.261 52.2144L103.263 52.2122C103.683 51.7889 104.147 51.3216 104.696 50.8611C104.895 50.6898 104.987 50.3961 104.935 50.092C104.884 49.7936 104.708 49.5644 104.462 49.4786L88.7504 45.0035L88.7481 45.0029C87.2912 44.6146 85.8643 44.4289 84.4534 44.617L84.4385 44.619L72.4008 45.8326L72.3064 44.8964L84.3366 43.6833ZM88.8946 44.4627C87.3958 44.063 85.8913 43.8614 84.3839 44.0617L84.3779 44.0624L72.724 45.2376L72.7419 45.415L84.3972 44.2398L84.403 44.239C85.8802 44.0421 87.3604 44.2384 88.8463 44.6345L88.8517 44.6359L104.581 49.1159C104.987 49.2544 105.241 49.619 105.311 50.0276C105.382 50.4383 105.263 50.8765 104.944 51.1508L104.942 51.1523C104.407 51.6013 103.954 52.0579 103.531 52.4831C103.347 52.6682 103.168 52.8487 102.993 53.0177C102.406 53.5825 101.821 54.0622 101.046 54.3857C99.4948 55.0331 97.1555 55.0656 92.4786 53.8218C91.2472 53.4951 89.4446 53.3393 87.5386 53.5018C85.6325 53.6643 83.6149 54.1457 81.9572 55.1001C80.2978 56.0556 78.9967 57.4869 78.5358 59.545C78.0833 61.566 78.4442 64.1773 80.0464 67.5155L80.2066 67.4372C78.615 64.1206 78.2692 61.552 78.7099 59.584C79.1575 57.5849 80.42 56.191 82.0462 55.2547C83.6742 54.3174 85.664 53.8406 87.5537 53.6795C89.4434 53.5184 91.2249 53.6737 92.4328 53.9941C97.1147 55.2394 99.505 55.2222 101.115 54.5503C101.92 54.2143 102.524 53.7169 103.116 53.1462C103.305 52.9643 103.49 52.7784 103.679 52.5876L103.681 52.5855C104.094 52.1698 104.528 51.7329 105.058 51.2885C105.058 51.2884 105.057 51.2886 105.058 51.2885L105.059 51.2875C105.435 50.9647 105.566 50.458 105.487 49.9974C105.408 49.5374 105.118 49.1085 104.635 48.9457L88.8991 44.4639L88.8946 44.4627Z" fill="#6A1857"/>
<path fill-rule="evenodd" clip-rule="evenodd" d="M61.7378 79.7076C66.1591 82.4246 71.206 83.8944 75.018 83.6989L75.0466 84.2578C71.0926 84.4606 65.9344 82.9434 61.4448 80.1844C56.9547 77.425 53.0828 73.392 51.7632 68.5193L52.3034 68.373C53.5723 73.0586 57.3171 76.9909 61.7378 79.7076Z" fill="#6A1857"/>
<path fill-rule="evenodd" clip-rule="evenodd" d="M52.4375 68.1367L52.4873 68.3207C53.7391 72.9425 57.4405 76.8404 61.8376 79.5426C66.2356 82.2453 71.2446 83.6989 75.0082 83.5059L75.1985 83.4961L75.2467 84.4358L75.0563 84.4456C71.054 84.6508 65.8578 83.1175 61.3449 80.3442C56.8312 77.5704 52.916 73.5031 51.5791 68.5667L51.5293 68.3827L52.4375 68.1367ZM51.9982 68.6507C53.3473 73.3778 57.1351 77.3096 61.5446 80.0194C65.9387 82.7197 70.9658 84.2162 74.8464 84.0732L74.8372 83.895C71.0011 84.0357 66.0098 82.554 61.638 79.8674C57.251 77.1715 53.5035 73.2719 52.1704 68.6041L51.9982 68.6507Z" fill="#6A1857"/>
<path fill-rule="evenodd" clip-rule="evenodd" d="M74.79 161.716L68.5176 154.249L68.9461 153.889L75.2179 161.355C75.218 161.355 75.2178 161.355 75.2179 161.355C76.2765 162.606 77.6237 163.473 79.1669 163.956L88.8216 166.743L88.6664 167.281L79.0029 164.491C77.3615 163.978 75.9217 163.053 74.7907 161.717L74.79 161.716Z" fill="#6A1857"/>
<path fill-rule="evenodd" clip-rule="evenodd" d="M80.3848 155.173L74.1123 147.706L74.5408 147.346L80.8126 154.812C80.8128 154.813 80.8125 154.812 80.8126 154.812C81.8719 156.064 83.2201 156.932 84.7646 157.414L84.7753 157.418L91.7446 159.907L91.5564 160.434L84.5922 157.947C82.9531 157.434 81.5146 156.508 80.3848 155.173Z" fill="#6A1857"/>
<path fill-rule="evenodd" clip-rule="evenodd" d="M196.497 174.941C196.782 175.146 196.846 175.543 196.64 175.828C192.484 181.583 187.535 187.01 183.632 190.993C181.679 192.986 179.985 194.62 178.778 195.757C178.175 196.325 177.693 196.769 177.362 197.071C177.197 197.223 177.069 197.338 176.982 197.417L176.883 197.506L176.857 197.528L176.849 197.536C176.849 197.536 176.848 197.536 176.426 197.061L176.004 196.586L176.011 196.58L176.035 196.558L176.131 196.472C176.216 196.396 176.342 196.282 176.505 196.133C176.832 195.835 177.308 195.395 177.907 194.832C179.103 193.704 180.785 192.082 182.724 190.103C186.605 186.143 191.506 180.767 195.61 175.084C195.816 174.799 196.213 174.735 196.497 174.941ZM175.951 197.484C175.718 197.221 175.742 196.82 176.004 196.586L176.426 197.061L176.849 197.536C176.587 197.769 176.184 197.746 175.951 197.484Z" fill="#BC0005"/>
<path fill-rule="evenodd" clip-rule="evenodd" d="M237.949 222.887C238.075 222.559 238.442 222.396 238.77 222.522L238.542 223.115L238.314 223.708C237.986 223.582 237.823 223.215 237.949 222.887ZM238.542 223.115L238.314 223.708L238.386 223.736L238.595 223.816C238.779 223.886 239.048 223.988 239.393 224.117C240.082 224.376 241.072 224.744 242.276 225.182C244.683 226.057 247.301 227.052 250.726 228.167C251.059 228.275 251.418 228.093 251.527 227.759C251.635 227.425 251.453 227.067 251.119 226.958C247.712 225.849 245.109 224.86 242.711 223.987C241.511 223.551 240.526 223.185 239.84 222.927C239.497 222.799 239.229 222.697 239.047 222.628L238.84 222.549L238.77 222.522L238.542 223.115Z" fill="#BC0005"/>
<path d="M179.388 121.073C178.751 121.074 178.136 120.876 177.659 120.515C177.182 120.154 176.876 119.656 176.799 119.114C176.722 118.573 176.879 118.026 177.241 117.577C177.602 117.129 178.143 116.809 178.762 116.68C179.38 116.55 180.032 116.619 180.594 116.874C181.157 117.129 181.591 117.552 181.814 118.062C182.037 118.573 182.034 119.136 181.805 119.645C181.577 120.154 181.138 120.574 180.573 120.824C180.207 120.988 179.8 121.073 179.388 121.073ZM179.388 117.782C179.177 117.783 178.97 117.83 178.787 117.918C178.603 118.006 178.449 118.133 178.339 118.287C178.229 118.441 178.167 118.616 178.158 118.796C178.149 118.977 178.194 119.156 178.288 119.317C178.361 119.441 178.462 119.551 178.585 119.641C178.708 119.731 178.851 119.799 179.004 119.842C179.175 119.889 179.356 119.905 179.534 119.887C179.712 119.868 179.884 119.817 180.036 119.737C180.189 119.656 180.32 119.548 180.419 119.42C180.519 119.292 180.585 119.147 180.612 118.995C180.64 118.843 180.628 118.688 180.579 118.54C180.53 118.392 180.444 118.255 180.326 118.139C180.209 118.022 180.064 117.929 179.901 117.865C179.737 117.801 179.56 117.769 179.38 117.77L179.388 117.782Z" fill="black"/>
<path d="M158.21 113.876C158.209 113.855 158.209 113.833 158.21 113.811C155.956 111.075 152.449 110.59 151.646 112.84C150.018 109.823 145.711 113.182 145.589 113.442C145.589 113.442 145.589 113.463 145.589 113.473C145.427 118.155 148.686 120.118 151.898 120.313C156.63 120.642 157.771 115.949 158.21 113.876Z" fill="#640011"/>
</svg>
